<?xml version="1.0" encoding="utf-8"?>
<!-- Generator: Adobe Illustrator 26.0.1, SVG Export Plug-In . SVG Version: 6.00 Build 0)  -->
<svg version="1.1" id="Layer_1" xmlns="http://www.w3.org/2000/svg" xmlns:xlink="http://www.w3.org/1999/xlink" x="0px" y="0px"
	 viewBox="0 0 487.2 95.1" style="enable-background:new 0 0 487.2 95.1;" xml:space="preserve">
<style type="text/css">
	.st0{fill:#FFFFFF;}
	.st1{fill:#EE8022;}
</style>
<g>
	<path class="st0" d="M466.5,94.2V57.5h-37.3v36.8h-20.2v-93h20.2v36.1h37.3V1.3h19.9v93H466.5z"/>
</g>
<g>
	<path class="st0" d="M301.2,47.9v9.7l-37.6,0l-0.1,6.8c0.1,7.7,2.9,10.4,10.7,10.4l46.5-0.1v19.8c-16.3-0.1-34.8,0.2-51.3-0.1
		c-15.4-0.6-25.2-11.5-25.4-26.9c-0.1-6.5-0.2-13.1-0.2-19.6l0-0.5c0-6.5,0.1-12.9,0.2-19.4c0.2-15.4,10-26.3,25.4-26.9
		c16.5-0.3,34.9,0,51.3-0.1v19.8l-46.5-0.1c-7.8,0-10.6,2.7-10.7,10.4l0.1,6.8l37.6,0v9.5V47.9z"/>
</g>
<path class="st0" d="M324,47.6c0,6.1,0.7,12.6,2.3,18.6c4.5,17.3,16.3,27.5,34.8,28.1c12.2,0.4,28.3-0.2,40.5-0.1V74.7l-35.3,0
	c-13.9,0-20-4.2-22-17.8c-0.5-3-0.4-9.3-0.4-9.3c0-1.3,0-5.9,0.4-9c2-13.6,8.1-17.8,22-17.8l35.3,0V1.2c-12.2,0.1-28.3-0.5-40.5-0.1
	c-18.5,0.6-30.3,10.8-34.8,28.1C324.6,35.3,323.9,41.4,324,47.6L324,47.6z"/>
<polygon class="st0" points="163.1,1.3 240.5,1.3 240.5,20.8 211.9,20.8 211.9,94.5 191.6,94.5 191.6,20.8 163.1,20.8 "/>
<path class="st1" d="M152,47.7c2.3-2.3,4.5-5,5.9-8.1c8-18.1-3.6-37.8-23.4-38.5l-51,0v19.7l48.4,0c5,0,8.7,3.6,8.8,8.3
	c0.1,4.9-3.1,8.3-8.3,8.7c-1,0.1-48.8,0-48.8,0v56.3l51,0c19.8-0.7,31.4-20.4,23.4-38.5C156.6,52.7,154.4,50,152,47.7z M131.9,74.5
	l-28.5,0V57.5c13.3,0,28.5,0,29,0c5.2,0.4,8.5,3.8,8.3,8.7C140.5,70.9,136.9,74.5,131.9,74.5z"/>
<path class="st1" d="M20.8,67.5v26.7l-19.5,0v-30C1.6,49.2,11.5,39,26.6,38.1c7.6-0.4,15.2-0.1,22.8-0.2c4.4-0.1,7.7-2.3,8.7-5.8
	c1-3.7,0.1-6.9-2.9-9.4c-1.6-1.3-3.5-1.9-5.6-1.8H29V1.3l19.2,0c4.3,0,6.1,0.4,8.4,0.9c13.7,2.7,21.6,13.3,21.3,28.3
	c-0.3,14.1-9.2,24.4-22.8,26.3c-8.2,1.2-16.4,0.4-24.7,0.6c-6.2,0.1-9.6,3-9.6,9.3L20.8,67.5z"/>
<rect x="1.2" y="1.3" class="st0" width="19.5" height="19.5"/>
</svg>
